<?xml version="1.0" encoding="utf-8"?>
<!-- Generator: Adobe Illustrator 24.1.0, SVG Export Plug-In . SVG Version: 6.00 Build 0)  -->
<svg version="1.1" id="Layer_1" xmlns="http://www.w3.org/2000/svg" xmlns:xlink="http://www.w3.org/1999/xlink" x="0px" y="0px"
	 viewBox="0 0 800 800" style="enable-background:new 0 0 800 800;" xml:space="preserve">
<style type="text/css">
	.st0{fill:#EC008C;}
	.st1{fill:#FFFFFF;}
	.st2{fill:#010101;}
</style>
<polygon class="st0" points="49.7,203.4 79.3,192.7 115.2,196.2 423.4,101.9 426.1,85.4 439.3,83.3 568.5,92.1 650.6,106.8 
	690.1,128.7 732.4,123.9 733,126.4 731.9,142.7 706.8,203.5 368.6,257.7 75.8,245.8 "/>
<g>
	<path class="st1" d="M497.7,504.7c-1.6,0-3.2-0.2-4.8-0.5c-15.8-3.2-21.1-16.2-25-25.7c-1.9-4.7-3.5-8.7-5.7-9.1
		c-0.1,0-0.2,0-0.3,0c-1.5,0-2.8,2.5-4.5,5.8c-4.1,7.7-10.3,19.4-29.3,19.4c-2.5,0-5.3-0.2-8.1-0.6l-0.1,0l-0.1,0
		c-12-3.3-17.3-14.7-21.6-23.8c-2.7-5.8-5.1-10.9-8.2-10.9c-2.2,0-5.4,3.2-9.2,6.9c-7.7,7.6-18.3,18.1-34.3,18.1
		c-5.6,0-11.5-1.3-17.6-4c-24.5-10.6-30-24.6-33.2-33c-1.6-4-2.6-6.6-4.8-7.2c-0.2,0-0.4-0.1-0.6-0.1c-1.6,0-3.2,1.9-5.3,4.2
		c-4.5,5.2-11.4,13-27.1,13c-6.6,0-14.4-1.4-23-4.3l-0.1,0l-0.1,0c-14.1-7.2-18.1-11.8-22.4-16.7c-1.3-1.5-2.7-3-4.4-4.7
		c-4.8-4.7-1.6-35.7-1.6-35.9c1.7-5.1,8-10.4,17.4-14.5c1.8-0.8,3.9-1.2,6.1-1.2c10.5,0,22.3,8.5,24.7,10.2
		c2.6-0.6,15.4-3.5,24.9-3.5c1.8,0,3.4,0.1,4.7,0.3c9.1,1.4,19.5,8.7,21.7,10.3c2.9-1,16.7-5.8,25.3-6.2c0.2,0,0.5,0,0.7,0
		c8.7,0,19.3,6.8,21.4,8.1c1.4-0.2,6-0.9,13.3-0.9c2.5,0,5.1,0.1,7.7,0.2c12,0.7,22.8,10.7,25.4,13.3c2.9-2,13.8-9.2,27.6-10.6
		c0.7-0.1,1.4-0.1,2.2-0.1c14.5,0,34.4,13.2,38.3,15.9c3-2.5,16.2-13,29.7-13.7c0.4,0,0.9,0,1.3,0c13.3,0,28.1,9.7,31.4,12
		c3.3-2.9,19.3-16.1,32-18.5c1.9-0.4,4-0.5,6.1-0.5c10.4,0,19.8,4.2,22.4,5.4c1.4-1.4,5.4-5.4,8.5-7.8c3.7-2.8,23.4-7.8,31.1-7.8
		c0.7,0,1.3,0,1.7,0.1c4.1,0.7,7.3,2.3,8.9,3.3c0.4-1.9,1.4-5,3.2-6.5c2.7-2.2,23.8-9.8,30.2-10c0.4,0,0.9,0,1.3,0
		c3.7,0,5.8,0.7,6.9,1.2c2.1-2.8,9.4-12.3,15-14.2c5.3-1.7,10.6-2.5,12.3-2.7c0.9-1.9,4.3-8.5,8.4-12.4c0-0.2,0-0.6-0.1-0.8
		c-1.2-1.4-2.3-2.8-3.3-4c-1.2-1.6-2.4-3.1-3.3-3.8c-4.3,3.3-13.7,10-32.4,11.4c-1.6,1.1-10.7,7.5-15.9,10.1
		c-5.2,2.6-27.6,6.8-36.4,6.8c-1.2,0-2-0.1-2.7-0.2c-4.6-0.9-8.5-6-10.2-8.7c-1.4,3-4.5,9.1-7.3,11.8c-3.1,3.1-24.8,6.7-36.6,6.7
		c-4.1,0-6.6-0.4-7.9-1.2c-4.5-2.9-10.4-14.3-12.3-18.2c-5.1,4.9-28.3,26.4-44.2,27.8c-0.6,0.1-1.2,0.1-1.8,0.1
		c-15.3,0-32.4-16.8-36.6-21.3c-2.7,4.7-13.1,20.8-30.3,22.7c-0.9,0.1-1.8,0.2-2.6,0.2c-16,0-27.2-16.2-30.2-21.1
		c-3.5,4.9-16.3,21.4-31.7,21.4c-0.9,0-1.7-0.1-2.6-0.2c-16.1-2-27-15.5-30-19.7c-2.6,3.7-11.3,14.3-23.4,15.9
		c-1.1,0.2-2.3,0.2-3.4,0.2c-9.5,0-15-5.6-17.1-8.2c-1.6,2.2-5.6,6.4-15,7.9c-0.5,0.1-1,0.1-1.5,0.1c-11.4,0-27.9-19.4-32.5-25.1
		c-1.2,3.7-4.6,12-10.3,16.1c-4.8,3.4-11.7,5.1-21.1,5.1c-5.8,0-12.5-0.6-20.5-1.8c-21.7-3.4-27.1-14.7-27.3-15.1
		c-1.1-2.3-10.1-23-6.3-29.7c0.7-1.2,1.2-2.4,1.7-3.5c2.4-5.2,4.6-10.1,18.1-12c0.7-0.1,1.5-0.2,2.3-0.2c11.8,0,24.6,12.1,32.2,19.3
		c2.4,2.3,4.5,4.2,5.5,4.8c0.8,0.4,1.7,0.6,2.9,0.6c2.9,0,6.4-1.4,9.3-2.4c1.5-0.6,2.9-1.1,4-1.4c1.3-0.3,1.6-2.1,2-5.3
		c0.5-3.4,1.1-8.2,4-13.1c4.7-8.1,13.9-12.4,26.5-12.4c3.8,0,8,0.4,12.3,1.2c10.2,1.8,15.8,8.3,20.8,14c4.4,5,8.2,9.4,14.1,9.4
		c0.8,0,1.6-0.1,2.4-0.2c6.4-1.1,7-5,7.9-10.3c1.1-6.5,2.5-14.6,15.6-19.5c2.4-0.9,4.9-1.4,7.2-1.4c10.3,0,17.2,9,23.3,17
		c4.3,5.7,8.4,11,12.5,11c0.2,0,0.4,0,0.6,0c8.8-1.1,9.3-5.9,10-11.9c0.7-6.4,1.6-14.4,14.4-17.7c1.9-0.5,3.8-0.7,5.6-0.7
		c10.9,0,17.5,8.9,23.3,16.8c4.4,5.9,8.1,11.1,12.7,11.1c0.3,0,0.6,0,1-0.1c4.4-0.7,6.1-6.4,8.1-13.6c3.4-12.1,8.1-28.6,30.2-31.7
		c1.8-0.2,3.6-0.4,5.3-0.4c19.6,0,29.3,16.2,35.7,26.9c3.2,5.4,6,10.1,8.6,10.1c0.1,0,0.3,0,0.5,0c8-1.7,8.8-9.7,9.7-19
		c1.1-11.7,2.4-24.9,19.4-27.2c1.5-0.2,3-0.3,4.4-0.3c14.5,0,20.9,10.8,26,19.5c3.6,6.1,6.6,11.3,11.4,11.3c0.4,0,0.9,0,1.3-0.1
		c5.6-1,8.1-11.3,10.7-22.3c3.8-16,8.4-35.8,25.4-36.7c0.6,0,1.2,0,1.7,0c17,0,22.3,13,26.5,23.4c2.4,6.1,4.6,11.3,8.4,12.8
		c0.5,0.2,0.9,0.3,1.3,0.3c5,0,7.6-13.6,10.2-26.7c3.3-17,6.8-34.6,16.3-34.6c0.7,0,1.3,0.1,2,0.3c8.3,2.1,13,9.4,13.6,21.2
		c0.4,6.6-0.6,12.8-1.2,15.5c8.4-2.3,10.6-23.6,11.2-33l2,0c0.5,6.6,0.5,13.6,0.5,19.2c0,2.2,0,4.1,0,5.8
		c0.2,11.6-9.5,58.4-12.6,71.7c-0.3,1.1-3.2,5.1-6.3,9c2.9-2.3,5.2-4.1,5.8-4.2c0.1,0,0.2,0,0.4,0c3.1,0,10.5,9.8,13.4,16.6
		c3.8,9.1,9.4,70.1,10.5,82.2l-1.9,0.6l-1.5-2.6c-0.3,8.5-1.2,26.8-3.6,29.2c-0.4,0.4-1,0.7-1.6,0.7c-2.1,0-4.5-2.8-7.9-7.1
		c-1.3-1.7-3-3.8-4-4.6c-0.3,1.1-0.6,3.8-0.8,6.3c-1,9.6-2.6,25.7-12.1,28.2c-1,0.3-1.9,0.4-2.8,0.4c-7,0-10.6-7.5-13.2-13
		c-1.3-2.7-2.7-5.8-3.8-5.8c-1.3,0.2-2.9,5.2-4.2,9.3c-2.6,8.3-6.2,19.6-14.1,22.7c-1.3,0.5-2.6,0.8-3.9,0.8c-6,0-10.8-5.5-14.7-10
		c-2.6-3-5-5.8-6.9-5.8c-0.2,0-0.3,0-0.5,0.1c-1.8,0.6-2.9,3.5-4.2,7.2c-2.7,7.2-6.3,17-18.9,21.5c-1.8,0.7-3.7,1-5.4,1
		c-10.2,0-16.1-11.1-20.5-19.3c-2.1-4-4.3-8.1-5.9-8.3c0,0,0,0,0,0c-1.3,0-3.2,3.7-5,7.2c-4.9,9.8-13.2,26.2-33.8,26.2
		c-14.7-0.5-21.6-13-26.2-21.3c-2.1-3.8-4.1-7.3-5.6-7.3c0,0-0.1,0-0.1,0c-1.5,0.2-3.7,3.8-6.1,7.6
		C519.8,491.8,511.6,504.7,497.7,504.7z"/>
	<path class="st2" d="M59.8,488.7c0,0,0,3,2.8,3.7c41.9,11.8,492.3,135.7,670.3,23.8c23.9-15,23.9-40.9,23.9-40.9l0-0.1l-0.9-53.3
		c0,0-5.9-77.9-9.5-86.1c-3.6-8.2-8.8-15.9-9.8-18.7c-1-2.7,8.8-51.6,8.8-70s-8.9-88.9-8.9-88.9l0.3,4l-3.7-35.9v0
		c-2.2,10.5-8.1,16.1-13.7,19.8c-10.3,6.8-8.8,15.3-15.5,23c-6.7,7.7-29,10.1-45.3,5.3c-12.9-3.8-23.2-2.8-35.3,2.6
		c-12.5,4.6-27.3,6.8-40.3,9.4c15-4,30.8-8.1,45.4-14.3c15.2-7.6,36,0.5,47.8,0.8c11.8,0.3,26.1-2.5,29.2-13.8
		c3-11.3,12.9-15.1,17.6-19.8c4.3-4.5,6.8-9.5,9.5-15.7c-3.5-7-18.2-15.1-45.8-21.3c-66.8-15-219.4-30-235.1-30
		c-10.9,4.1-29.3,12.3-29.3,12.3l-1.4,12.3l-312.7,96.3l-30.1-3l-34.8,10.9c0,0,30.8,155.8,30.5,173.6L59.8,488.7z M429.5,87.9
		c0,0,212.4,9.3,238.3,47.8c-48-33-239.2-37.5-239.2-37.5L429.5,87.9z M57.1,202.7l23.1-6.6c0,0,145,17.1,400.5,5.9
		C271.6,219.8,57.1,202.7,57.1,202.7z M746.5,446c-2.7,2.7-10.2-10.9-12.9-11.6c-2.7-0.7,0,31.3-12.9,34.8
		c-12.9,3.4-15-19.1-19.8-18.4c-4.8,0.7-6.1,27.3-18.4,32c-12.3,4.8-19.8-17-25.9-15c-6.1,2-4.1,21.8-23.2,28.6
		c-19.1,6.8-25.2-25.9-31.3-26.6c-6.1-0.7-9.5,33.4-38.8,33.4c-21.8-0.7-25.9-29.3-32-28.6c-6.1,0.7-14.3,33.4-38.2,28.6
		c-23.9-4.8-23.2-33.4-30.7-34.8c-7.5-1.4-6.1,30-42.3,24.5c-19.8-5.5-21.1-34.8-30-34.8c-8.9,0-24.5,36.8-60.6,21.1
		c-36.1-15.7-30-38.2-38.2-40.2c-8.2-2-10.2,27.9-55.9,12.9c-18.3-9.4-19.3-14.2-26.5-21.2c-4.3-4.2-1.3-34.7-1.3-35
		c1.7-5.2,8.6-10.2,16.9-13.8c11.8-5.1,30.2,9.2,30.2,9.2s19.7-4.9,29.6-3.3c10,1.5,21.7,10.5,21.7,10.5s16.1-5.9,25.5-6.3
		c9.4-0.4,21.8,8.2,21.8,8.2s7.8-1.4,21.1-0.7c13.3,0.8,25.4,13.6,25.4,13.6s12.2-9.3,27.8-10.9c15.6-1.6,40.5,16,40.5,16
		s14.8-13.2,29.7-14c14.9-0.8,32.7,12.3,32.7,12.3s18.3-16.2,32.1-18.7c13.8-2.6,28.5,5.1,28.5,5.1s5.2-5.4,8.9-8.2
		c3.7-2.8,26.2-8.4,32-7.5c5.8,0.9,9.8,3.9,9.8,3.9s0.8-5.4,3.2-7.3c2.4-2,23.2-9.5,29.6-9.8c6.4-0.3,8.4,1.5,8.4,1.5
		s8.9-12.5,15.1-14.6c6.2-2,12.7-2.7,12.7-2.7s3.9-8.3,8.5-12.7c0.3-0.3,0.3-1.6-0.1-2c-3.2-3.5-5.5-7.6-7.4-8.4
		c-4.4,3.4-13.6,10.2-32.7,11.6c0,0-10.4,7.4-16,10.2c-5.6,2.8-32.7,7.7-38.5,6.5c-5.8-1.2-10.6-9.8-10.6-9.8s-4.3,9.7-7.8,13.2
		c-3.5,3.5-38.2,8.6-43.3,5.3c-5.1-3.3-12.5-19-12.5-19s-27.2,27-44.5,28.5c-17.4,1.5-38.5-21.9-38.5-21.9s-10.7,21.2-30.2,23.4
		c-19.4,2.2-32.7-21.8-32.7-21.8s-15.8,24.4-34.2,22.1c-18.4-2.3-30.2-20.4-30.2-20.4s-9.5,14.8-23.5,16.7
		c-14.1,1.9-20.4-8.9-20.4-8.9s-2.6,6.7-15.1,8.8c-12.5,2-34.2-26.1-34.2-26.1s-3.3,12.3-10.5,17.4c-7.2,5.1-19.4,6.4-40.9,3.1
		c-21.5-3.3-26.6-14.6-26.6-14.6s-10.1-22.3-6.3-28.8c3.7-6.5,3.2-12.8,19.1-15c15.8-2.2,34.8,21.3,39.4,23.8
		c4.6,2.6,12.8-2,16.9-3.1c4.1-1,1.2-9.5,6.6-18.9c5.5-9.4,17.9-14.3,37.8-10.7c19.9,3.6,22.1,25.9,37.7,23.2
		c15.5-2.7,0.7-21.1,23.7-29.8c23-8.7,31.1,28.2,43.4,26.6c19.9-2.6,1-23.5,24.5-29.6c23.5-6.1,29.1,29.1,42.4,27.1
		c13.3-2,3.6-40.5,38.3-45.3c34.8-4.8,40.4,38.7,50.1,36.6c19.4-4.1-0.3-42.2,29-46.2c29.3-3.9,28.1,32.9,43.1,30.3
		c15-2.6,8-57.6,35.9-58.9c27.9-1.4,24.7,31.5,36.1,36.1c14.8,6,10.9-65.4,30-60.7c19.1,4.8,11.4,37,11.4,37
		c10-0.4,12.8-22.1,13.5-34.1c0.8,9.1,0.5,19,0.6,24.9c0.2,11.7-9.6,58.8-12.6,71.5c-0.5,2-12.6,16.6-12.6,16.6s12.1-10.3,13.3-10.6
		c2-0.4,9.4,8.3,12.6,16c3.8,9.1,9.7,73.7,10.4,81.9l-3.3-5.6C749.9,414,749.2,443.3,746.5,446z"/>
	<g>
		<g>
			<path class="st0" d="M99.1,620.2c0.4-1.4,1.3-2.2,2.6-2.3c4.8,0,13.7-2.2,17.7,1.6c1.3,0.7,3.1,1.4,4.5,2.1
				c4-0.8,1.6-5.2-0.3-6.8c-5.1-6-12.8-5.2-19.8-6.9c-0.4-6.3,10.5-19.9-1.8-21.8c-5.2-5.6-12.9,16.9-14.8,20.5
				c-1.2,2.5-3.4,2.4-6.1,2.9c-6.3,0.9-16.9,3.1-23,5.8c-4.3,1.6-2.9,4.1-1,6.3c5.8,4.3,13.9,0.4,19.8-0.3c2.3-0.3,5-1.6,3.5,1.6
				c-0.9,3.1-2.8,7.4-4.3,11.6c-5.4,14.9-10.6,32.3-10.9,48.6c0.7,9,0.8,29.7,14,26.8c1.8-0.4,4-2.1,1.5-3.4
				c-10.1-8.9,4.2-41,6.9-53.1C91.3,642.3,95.2,631.8,99.1,620.2z"/>
			<path class="st0" d="M264.9,652.8c-3-4.1-4.2,1.4-5.3,2.6c-2.5,3.5-5.9,7.6-9.3,10.2c0.2-7.4,4.6-26.3-7.9-24.5
				c-5.5,8.5-9.7,21-18.1,27.8c-0.7-6.5,2.3-14.3,4-20.8c1.8-5.7,4.6-9.3-2.8-11.3c-8.1,0.3-12.8,24.1-12.6,31.2
				c-0.2,4.2,1.7,7.7,4.6,9.6c-30.5,25.8-20-2.5-17.5-12.4c1.8-6.8,7.4-25,16.3-43.3c2.1-4.3,13.4-3.7,19.6-4.8
				c6.2-1.1,14.7-6.8,8.8-6.8s-15.8,0.9-22.7-0.3c-0.8-0.3-1.3-0.2-1.2-1.2c1.7-7.6,10.1-19.3-2.4-21.5c-5.3-0.9-7.4,7.3-12.8,18.2
				c-5.5,10.9-25.2,1.5-29.7,11.8c3.5,10.5,14.4,5.4,21.5,5.3c-1.3,7-5.3,18.7-9.1,31.3c-7,8.3-13.9,16.4-24.1,24.2
				c-6.2-6.2-14.6-14.4-9-23.7c3.7-5.7,9.8-13.9,16.8-15.5c2.6-0.4,2-2.2,0.6-3.7c-7.3-7.6-18.2,0.4-24.5,5.9
				c-4.6,4.2-6.9,8.1-7.6,11.8c-1.2,1.8-2.9,5.7-3.6,6.9c-3.2,5.9-7.4,11.8-13.2,16.5c-1.2-12.5,11.2-24.4,10.3-36.5
				c-4.3-6.4-7.4-2-11.6,3.2c-12.6-21-29.5,11.5-30.5,24.4c-0.9,6.4,3.1,10.1,9.2,9.8c6.7-0.8,11.2-10.7,15.5-14.5
				c-4.1,9.9-0.4,28.8,13.7,17.1c1.8-1.2,8.1-9.2,12.1-16.2c4.9,9.6,16.3,17,11.9,22.2c-7.9,7-39.9,23.7-35.5,34.9
				c13.2,14.3,38,4,47.6-10c4.9-7.2,6.7-15,2.7-23.2c-0.6-1.1-0.5-2,0.5-2.7c1.3-1.6,8.2-7.7,14.4-14.3c-2.4,10.6-3.7,20.6-1.9,27.8
				c3.8,15.8,30.6-6.8,47.3-20.6c0.1-0.1,0.2-0.2,0.3-0.3c0.3-0.2,0.5-0.4,0.8-0.6c0,0,0,0-0.1,0c3.8-3.5,6.8-9,8.8-11.7
				c-0.3,3.6-1.1,9.4-2.8,12.6c-7.3,6.2-16.7,12.6-24,20.7c-18,17.3-0.7,28,16.2,17.7c13-9,17.6-26.6,21.5-40.8
				C251.8,673.9,267.8,656.9,264.9,652.8z M102.2,666.2c1.1-6.9,6.9-17.9,12.6-21.9C117.7,653.4,107.3,660.1,102.2,666.2z
				 M128.9,718.8c-4.2-3.3,24.3-21.9,28.2-24.2C156.1,708,141.5,717.6,128.9,718.8z M212.5,713.5c-3-5.9,14.9-21.3,19.8-24.4
				C229.1,698.8,222.8,710.3,212.5,713.5z"/>
		</g>
		<path class="st0" d="M259.6,602h26.2v30.3h0.5c19.2-16.2,47.9-2.5,45.8,24.9c1.9,34.6-38.7,42.5-62.7,27.9v-69.3h-9.7V602z
			 M299.9,639.6c-5.6,0.2-12.1,3.6-14.2,9.1c0,0,0,26.3,0,26.3C318.5,691.8,325.7,639.6,299.9,639.6z"/>
		<path class="st0" d="M363.3,672.6h4.8l12.3-45.4h16.9l-17.9,57c-1.6,4.7-3.2,9-4.7,13c-1.5,3.9-3.3,7.3-5.3,10.2
			c-2,2.9-4.4,5.1-7.1,6.6c-2.7,1.6-6.1,2.3-10,2.3c-1.9,0-3.8-0.3-5.5-0.8c-1.7-0.5-3.3-1.1-4.7-1.8c-1.4-0.7-2.7-1.5-3.8-2.3
			c-1.1-0.8-2-1.5-2.7-2.2L344,698c1.1,0.9,2.4,1.8,3.9,2.6c1.5,0.8,2.9,1.2,4.3,1.2c2.5,0,4.5-0.9,6-2.7c1.5-1.8,2.9-4.7,4.2-8.7
			h-9l-26.3-63.2H345L363.3,672.6z"/>
		<path class="st0" d="M411.9,641.1h-12.5v-13.9h12.5v-14.4l16.4-4.7v19.1h33.1v13.9h-33.1v18.1c0,6.5,1.2,11.2,3.7,14.1
			c2.4,2.9,5.9,4.4,10.2,4.4c2.3,0,4.3-0.3,6.2-0.8c1.9-0.5,3.5-1.2,5-2.1c1.5-0.8,2.8-1.8,4-2.8c1.2-1,3.3-2.9,4.4-3.8l4.6,13.4
			c-1.4,1.7-1.2,2.2-3.4,3.6c-2.1,1.4-4.5,2.6-7,3.7c-2.5,1.1-5.1,1.9-7.8,2.5c-2.7,0.6-5.4,0.9-8,0.9c-9.4,0-16.5-2.6-21.3-7.9
			c-4.8-5.3-7.1-13.6-7.1-25.1V641.1z"/>
		<path class="st0" d="M526.7,683.7c-14,11-38.9,12.1-52.1-0.4c-12.6-12.4-12.3-37.6,0.8-49.5c24.5-19.4,61.9-4.6,52,30.5H482
			c0.6,19,28.9,17.4,39.3,8.7L526.7,683.7z M499.4,638.6c-8.1-0.2-16.5,5-17.1,13.7h31.1C513.4,643.5,508.5,638.5,499.4,638.6z"/>
		<path class="st0" d="M574.1,673c-3.5-9.1-22.8-7.5-30.7-13.1c-12.5-4.8-14.6-22.3-3-29.5c14.2-8.5,35.8-5.9,48.6,3.7l-7,11.2
			c-19.1-14-49.9-2.5-22.2,5.1c11.5,3.3,30.5,5.6,30.7,21c0,6.4-2.3,11.4-7,15.1c-13.1,9.8-40.5,5.9-52.3-5.2l7.6-11.9
			C545.6,675.5,570.5,686.2,574.1,673z"/>
		<path class="st2" d="M599.1,686.2c0-1.6,0.5-2.9,1.4-3.8c0.9-0.9,2.1-1.3,3.7-1.3c1.6,0,2.9,0.4,3.8,1.3c0.9,0.9,1.4,2.2,1.4,3.8
			c0,1.5-0.5,2.7-1.4,3.7c-0.9,1-2.2,1.5-3.8,1.5c-1.5,0-2.8-0.5-3.7-1.5C599.6,688.9,599.1,687.7,599.1,686.2z"/>
		<path class="st2" d="M619.3,665.5c0-0.5,0-1.1,0-1.8c0-0.7-0.1-1.5-0.1-2.3c-0.1-0.8-0.1-1.6-0.2-2.3s-0.2-1.4-0.3-2h-5.1v-5h10.3
			l0.7,6.2h0.4c0.5-0.9,1.2-1.7,2-2.6c0.8-0.8,1.8-1.6,3-2.3c1.1-0.7,2.4-1.2,3.8-1.6c1.4-0.4,2.8-0.6,4.4-0.6
			c2.3,0,4.4,0.3,6.2,0.8c1.8,0.5,3.3,1.4,4.5,2.7c1.2,1.3,2.1,3.1,2.7,5.3s0.9,5,0.9,8.5v22h-6.1v-20.8c0-4.2-0.7-7.4-2.1-9.6
			s-3.9-3.2-7.5-3.2c-1.3,0-2.6,0.3-3.9,0.8c-1.2,0.5-2.4,1.2-3.4,2.1c-1,0.9-1.9,1.9-2.7,3s-1.3,2.4-1.7,3.6v24h-5.9V665.5z"/>
		<path class="st2" d="M698.7,685.6c-0.9,0.8-2,1.6-3.3,2.3c-1.3,0.7-2.6,1.3-4.1,1.8c-1.5,0.5-3,0.9-4.6,1.2
			c-1.6,0.3-3.2,0.4-4.9,0.4c-3.1,0-5.8-0.5-8.1-1.4c-2.4-0.9-4.3-2.3-5.9-4.1c-1.6-1.8-2.8-3.9-3.6-6.3s-1.2-5.2-1.2-8.3
			c0-3.2,0.4-6.1,1.3-8.6c0.9-2.5,2.2-4.6,3.9-6.3c1.7-1.7,3.7-3,6.1-3.9c2.4-0.9,5.1-1.3,8-1.3c2.1,0,4.3,0.3,6.4,0.8
			c2.1,0.6,3.9,1.6,5.6,3.2s2.8,3.7,3.7,6.4c0.9,2.7,1.2,6.3,0.9,10.6h-29.6c0,4.6,1.2,8,3.7,10.3c2.5,2.3,5.8,3.4,9.9,3.4
			c1.4,0,2.7-0.2,4.1-0.5c1.4-0.3,2.6-0.7,3.9-1.2c1.2-0.5,2.3-1,3.2-1.5c0.9-0.6,1.7-1.1,2.2-1.5L698.7,685.6z M682.6,656.3
			c-1.7,0-3.3,0.2-4.8,0.5c-1.5,0.4-2.8,1-4,1.8c-1.1,0.8-2.1,1.9-2.8,3.3c-0.7,1.4-1.2,3-1.4,5h23.8c-0.3-3.4-1.3-6-3.2-7.9
			C688.2,657.2,685.7,656.3,682.6,656.3z"/>
		<path class="st2" d="M706.6,652.1h9.1v-7.6l6.1-1.7v9.3h20.5v5.1h-20.5v18.1c0,3.7,0.9,6.5,2.7,8.3c1.8,1.8,4.4,2.7,7.8,2.7
			c2.3,0,4.3-0.4,6-1.3c1.7-0.9,3.2-1.8,4.6-2.8l2,4.5c-1.8,1.4-3.9,2.6-6.4,3.4c-2.5,0.9-5,1.3-7.6,1.3c-2,0-4-0.3-5.8-0.9
			c-1.8-0.6-3.4-1.5-4.8-2.7c-1.4-1.2-2.5-2.8-3.3-4.7c-0.8-1.9-1.2-4.2-1.2-6.9v-19h-9.1V652.1z"/>
	</g>
</g>
<path class="st1" d="M766.7,475.1l-0.9-53.3l0-0.6c-2.2-29.7-6.6-80.9-10.3-89.4c-2.3-5.3-5.2-10.3-7.3-14c-0.5-0.9-1.1-2-1.6-2.9
	c0.4-3.5,1.6-11.1,2.7-17.9c2.7-17.1,6.1-38.3,6.1-49.9c0-18.8-8.7-87.3-9-90.2l-0.1,0l-3.2-31.7l-0.3-1.4l-0.6-2.5l-0.7-2
	c-5.5-11.1-23.2-20-52.6-26.6c-65.6-14.7-219.9-30.2-237.3-30.2l-3.5,0.6c-11.1,4.1-29.1,12.2-29.9,12.5l-5.9,8l-0.6,5.7
	l-304.5,93.8L79,180.5l-4,0.4l-34.8,10.9l-6.8,11.5c11.7,59.1,30,157,30.3,171L49.9,487.5l-0.1,1.3c0.1,5,3.2,11.3,10.1,13.2
	c42.1,11.8,261.6,70.6,452.1,70.6c0,0,0,0,0,0c99.5,0,175.6-16.1,226.2-48c28.2-17.7,28.5-48.1,28.5-49.4L766.7,475.1z M732.9,516.2
	c-178,111.9-628.4-12.1-670.3-23.8c-2.7-0.8-2.8-3.7-2.8-3.7l14-113.7c0.3-17.8-30.5-173.6-30.5-173.6L78,190.5l30.1,3l312.7-96.3
	l1.4-12.3c0,0,18.4-8.2,29.3-12.3c15.7,0,168.3,15,235.1,30c27.7,6.2,42.3,14.3,45.8,21.3l0.6,2.5l3.7,35.9l-0.3-4
	c0,0,8.9,70.5,8.9,88.9s-9.8,67.3-8.8,70c1,2.7,6.2,10.5,9.8,18.7c3.6,8.2,9.5,86.1,9.5,86.1l0.9,53.3l0,0.1
	C756.7,475.3,756.7,501.2,732.9,516.2z"/>
</svg>
